<svg xmlns="http://www.w3.org/2000/svg" width="33" height="33" viewBox="0 0 33 33">
  <path id="Icon_akar-instagram-fill" data-name="Icon akar-instagram-fill" d="M11.2,1.6c1.759-.081,2.32-.1,6.8-.1s5.043.02,6.8.1a12.143,12.143,0,0,1,4.008.766,8.446,8.446,0,0,1,4.824,4.826A12.135,12.135,0,0,1,34.4,11.2c.081,1.762.1,2.323.1,6.8s-.02,5.043-.1,6.8a12.1,12.1,0,0,1-.768,4,8.424,8.424,0,0,1-4.824,4.826A12.135,12.135,0,0,1,24.8,34.4c-1.761.081-2.322.1-6.8.1s-5.043-.02-6.8-.1a12.1,12.1,0,0,1-4.005-.768,8.1,8.1,0,0,1-2.924-1.9,8.088,8.088,0,0,1-1.9-2.922A12.178,12.178,0,0,1,1.6,24.8c-.081-1.762-.1-2.323-.1-6.8s.02-5.043.1-6.8a12.143,12.143,0,0,1,.766-4.008,8.094,8.094,0,0,1,1.9-2.922,8.088,8.088,0,0,1,2.921-1.9,12.178,12.178,0,0,1,4-.766Zm13.47,2.97c-1.74-.08-2.262-.1-6.667-.1s-4.927.016-6.667.1a9.12,9.12,0,0,0-3.064.569,5.124,5.124,0,0,0-1.9,1.233,5.118,5.118,0,0,0-1.233,1.9,9.12,9.12,0,0,0-.569,3.065c-.08,1.74-.1,2.262-.1,6.667s.016,4.927.1,6.667a9.12,9.12,0,0,0,.569,3.065,5.449,5.449,0,0,0,3.13,3.131,9.12,9.12,0,0,0,3.064.569c1.74.08,2.26.1,6.667.1s4.927-.017,6.667-.1a9.12,9.12,0,0,0,3.065-.569,5.449,5.449,0,0,0,3.131-3.13,9.12,9.12,0,0,0,.569-3.065c.08-1.74.1-2.262.1-6.667s-.017-4.927-.1-6.667a9.12,9.12,0,0,0-.569-3.064,5.124,5.124,0,0,0-1.233-1.9,5.12,5.12,0,0,0-1.9-1.233,9.12,9.12,0,0,0-3.065-.569ZM15.892,23.087A5.505,5.505,0,1,0,12.5,18a5.5,5.5,0,0,0,3.4,5.086ZM12,12A8.481,8.481,0,1,1,12,24,8.481,8.481,0,0,1,12,12Zm16.359-1.221a2.005,2.005,0,1,0-2.794-.041A2.005,2.005,0,0,0,28.362,10.782Z" transform="translate(-1.5 -1.5)"/>
</svg>
